<svg width="20" height="20" viewBox="0 0 31 31" fill="none" xmlns="http://www.w3.org/2000/svg">
<path id="help" d="M15.4269 24.2501C15.9373 24.2501 16.3688 24.0739 16.7212 23.7214C17.0736 23.369 17.2498 22.9376 17.2498 22.4272C17.2498 21.9167 17.0736 21.4853 16.7212 21.1329C16.3688 20.7805 15.9373 20.6042 15.4269 20.6042C14.9165 20.6042 14.4851 20.7805 14.1326 21.1329C13.7802 21.4853 13.604 21.9167 13.604 22.4272C13.604 22.9376 13.7802 23.369 14.1326 23.7214C14.4851 24.0739 14.9165 24.2501 15.4269 24.2501ZM14.1144 18.6355H16.8123C16.8123 17.8334 16.9035 17.2015 17.0858 16.7397C17.2681 16.2779 17.7846 15.6459 18.6353 14.8438C19.2672 14.2119 19.7655 13.6103 20.13 13.0391C20.4946 12.468 20.6769 11.7813 20.6769 10.9792C20.6769 9.61814 20.1787 8.573 19.1821 7.84383C18.1856 7.11466 17.0068 6.75008 15.6457 6.75008C14.2603 6.75008 13.1361 7.11466 12.2733 7.84383C11.4104 8.573 10.8089 9.448 10.4686 10.4688L12.8748 11.4167C12.9964 10.9792 13.2698 10.5053 13.6951 9.99487C14.1205 9.48446 14.7707 9.22925 15.6457 9.22925C16.4234 9.22925 17.0068 9.44192 17.3957 9.86727C17.7846 10.2926 17.979 10.7605 17.979 11.2709C17.979 11.757 17.8332 12.2128 17.5415 12.6381C17.2498 13.0634 16.8853 13.4584 16.4478 13.823C15.3783 14.7709 14.7221 15.4879 14.479 15.974C14.2359 16.4601 14.1144 17.3473 14.1144 18.6355ZM15.4998 30.0834C13.4825 30.0834 11.5866 29.7006 9.81234 28.935C8.03803 28.1693 6.49463 27.1303 5.18213 25.8178C3.86963 24.5053 2.83057 22.9619 2.06494 21.1876C1.29932 19.4133 0.916504 17.5174 0.916504 15.5001C0.916504 13.4827 1.29932 11.5869 2.06494 9.81258C2.83057 8.03828 3.86963 6.49487 5.18213 5.18237C6.49463 3.86987 8.03803 2.83081 9.81234 2.06519C11.5866 1.29956 13.4825 0.916748 15.4998 0.916748C17.5172 0.916748 19.413 1.29956 21.1873 2.06519C22.9616 2.83081 24.505 3.86987 25.8175 5.18237C27.13 6.49487 28.1691 8.03828 28.9347 9.81258C29.7004 11.5869 30.0832 13.4827 30.0832 15.5001C30.0832 17.5174 29.7004 19.4133 28.9347 21.1876C28.1691 22.9619 27.13 24.5053 25.8175 25.8178C24.505 27.1303 22.9616 28.1693 21.1873 28.935C19.413 29.7006 17.5172 30.0834 15.4998 30.0834ZM15.4998 27.1667C18.7568 27.1667 21.5155 26.0365 23.7759 23.7761C26.0363 21.5157 27.1665 18.757 27.1665 15.5001C27.1665 12.2431 26.0363 9.48446 23.7759 7.22404C21.5155 4.96362 18.7568 3.83341 15.4998 3.83341C12.2429 3.83341 9.48421 4.96362 7.2238 7.22404C4.96338 9.48446 3.83317 12.2431 3.83317 15.5001C3.83317 18.757 4.96338 21.5157 7.2238 23.7761C9.48421 26.0365 12.2429 27.1667 15.4998 27.1667Z" fill="white"/>
</svg>
